<svg xmlns="http://www.w3.org/2000/svg" width="1024" height="1024" fill="none"><mask id="c" width="739" height="613" x="136" y="194" fill="#000" maskUnits="userSpaceOnUse"><path fill="#fff" d="M136 194h739v613H136z"/><path d="M686.402 716.947q-36.035 20.216-88.769 33.399-52.295 12.744-130.518 18.896-77.783 6.153-190.283 6.153L174 225.639h124.365l47.901 262.793 32.08-6.153q29.883-5.713 43.945-19.336 14.502-14.062 21.973-41.748 3.515-13.623 6.591-37.793 3.516-24.61 6.592-59.765l6.592-97.998h121.289l-13.183 150.293q-2.638 30.76-7.471 55.371-4.834 24.609-12.305 42.627-14.502 36.034-40.869 56.25-25.928 20.215-82.617 33.838l-65.918 15.38 18.017 90.088h10.547q54.931 0 97.119-4.394 42.627-4.835 72.51-14.502 39.99-12.305 65.918-34.278 25.928-22.411 40.869-59.326 14.942-37.353 21.094-94.482l27.686-236.865h122.607l-28.125 233.789q-8.788 75.585-24.609 125.244-15.38 49.658-39.991 80.859-24.17 30.762-60.205 51.416"/></mask><path fill="url(#a)" d="M686.402 716.947q-36.035 20.216-88.769 33.399-52.295 12.744-130.518 18.896-77.783 6.153-190.283 6.153L174 225.639h124.365l47.901 262.793 32.08-6.153q29.883-5.713 43.945-19.336 14.502-14.062 21.973-41.748 3.515-13.623 6.591-37.793 3.516-24.61 6.592-59.765l6.592-97.998h121.289l-13.183 150.293q-2.638 30.76-7.471 55.371-4.834 24.609-12.305 42.627-14.502 36.034-40.869 56.25-25.928 20.215-82.617 33.838l-65.918 15.38 18.017 90.088h10.547q54.931 0 97.119-4.394 42.627-4.835 72.51-14.502 39.99-12.305 65.918-34.278 25.928-22.411 40.869-59.326 14.942-37.353 21.094-94.482l27.686-236.865h122.607l-28.125 233.789q-8.788 75.585-24.609 125.244-15.38 49.658-39.991 80.859-24.17 30.762-60.205 51.416"/><path fill="url(#b)" d="m686.402 716.947 15.167 27.037.125-.07.124-.071zm-88.769 33.399 7.34 30.118.089-.022.089-.022zm-130.518 18.896-2.43-30.904-.014.001zm-190.283 6.153-30.471 5.699 4.732 25.301h25.739zM174 225.639v-31h-37.336l6.864 36.699zm124.365 0 30.498-5.559-4.638-25.441h-25.86zm47.901 262.793-30.498 5.559 5.61 30.778 30.726-5.892zm32.08-6.153-5.821-30.448-.009.001-.009.002zm43.945-19.336 21.57 22.266.005-.005.006-.006zm21.973-41.748 29.929 8.077.045-.165.042-.165zm6.591-37.793-30.688-4.384-.034.235-.029.235zm6.592-59.765 30.882 2.702.027-.311.021-.311zm6.592-97.998v-31h-28.985l-1.945 28.919zm121.289 0 30.882 2.709 2.956-33.709h-33.838zm-13.183 150.293-30.882-2.709-.003.03-.002.031zm-19.776 97.998-28.636-11.874-.062.15-.06.15zM511.5 530.18l-18.861-24.602-.1.077-.1.077zm-82.617 33.838 7.044 30.189.1-.024.099-.024zm-65.918 15.38-7.044-30.189-29.243 6.824 5.889 29.445zm18.017 90.088-30.398 6.08 4.984 24.92h25.414zm107.666-4.394 3.212 30.833.141-.015.141-.016zm72.51-14.502-9.116-29.629-.214.065-.212.069zm65.918-34.278 20.042 23.65.116-.098.115-.099zm40.869-59.326 28.736 11.631.023-.059.024-.059zm21.094-94.482-30.79-3.599-.017.14-.015.14zm27.686-236.865v-31h-27.588l-3.203 27.401zm122.607 0 30.778 3.702 4.175-34.702h-34.953zm-28.125 233.789-30.778-3.703-.007.061-.008.061zm-24.609 125.244-29.538-9.41-.037.119-.037.119zm-39.991 80.859-24.34-19.198-.018.023-.017.023zm-60.205 51.416-15.166-27.036c-21.002 11.781-47.85 22.042-81.122 30.36l7.519 30.075 7.518 30.074c37.041-9.26 69.373-21.265 96.418-36.436zm-88.769 33.399-7.34-30.119c-32.703 7.97-74.438 14.086-125.608 18.111l2.43 30.904 2.431 30.905c53.126-4.179 98.403-10.66 135.427-19.683zm-130.518 18.896-2.444-30.903c-50.774 4.016-113.332 6.056-187.839 6.056v62c75.493 0 139.791-2.062 192.728-6.249zm-190.283 6.153 30.472-5.7-102.832-549.756-30.472 5.7-30.472 5.699 102.833 549.756zM174 225.639v31h124.365v-62H174zm124.365 0-30.497 5.559 47.9 262.793 30.498-5.559 30.497-5.559-47.9-262.793zm47.901 262.793 5.838 30.445 32.081-6.153-5.839-30.445-5.839-30.445-32.08 6.152zm32.08-6.153 5.821 30.449c22.82-4.363 44.192-12.502 59.694-27.519l-21.57-22.266-21.57-22.265c-3.248 3.147-11.173 7.898-28.196 11.153zm43.945-19.336 21.581 22.255c15.017-14.562 24.464-34.222 30.321-55.926l-29.929-8.077-29.93-8.076c-4.104 15.209-9.305 23.382-13.624 27.569zm21.973-41.748 30.016 7.747c2.821-10.93 5.212-25.008 7.327-41.626l-30.752-3.914-30.751-3.914c-1.987 15.609-3.99 26.726-5.857 33.961zm6.591-37.793 30.689 4.384c2.449-17.142 4.704-37.659 6.785-61.447l-30.882-2.702-30.882-2.702c-2.02 23.087-4.159 42.413-6.398 58.083zm6.592-59.765 30.93 2.08 6.592-97.998-30.93-2.08-30.93-2.081-6.592 97.998zm6.592-97.998v31h121.289v-62H464.039zm121.289 0-30.881-2.709-13.184 150.293 30.882 2.709 30.881 2.709 13.184-150.293zm-13.183 150.293-30.887-2.648c-1.683 19.635-4.039 36.954-7.003 52.044l30.419 5.975 30.419 5.975c3.481-17.723 6.106-37.318 7.938-58.699zm-7.471 55.371-30.419-5.975c-2.932 14.926-6.516 27.068-10.522 36.728l28.636 11.874 28.636 11.873c5.956-14.363 10.574-30.639 14.088-48.525zm-12.305 42.627-28.758-11.574c-7.95 19.754-18.497 33.658-30.972 43.222L511.5 530.18l18.861 24.601c22.682-17.389 39.38-40.985 50.767-69.278zM511.5 530.18l-19.061-24.448c-12.067 9.409-34.484 19.417-70.8 28.144l7.244 30.142 7.243 30.141c39.27-9.437 71.932-21.987 94.435-39.532zm-82.617 33.838-7.044-30.189-65.918 15.38 7.044 30.189 7.044 30.19 65.918-15.381zm-65.918 15.38-30.398 6.08 18.017 90.088 30.398-6.08 30.398-6.079-18.017-90.088zm18.017 90.088v31h10.547v-62h-10.547zm10.547 0v31c37.4 0 70.882-1.493 100.331-4.561l-3.212-30.833-3.211-30.833c-26.801 2.791-58.065 4.227-93.908 4.227zm97.119-4.394 3.494 30.802c29.783-3.377 56.103-8.544 78.559-15.809l-9.543-29.495-9.542-29.495c-17.389 5.626-39.408 10.126-66.461 13.194zm72.51-14.502 9.117 29.629c29.768-9.159 55.71-22.347 76.843-40.257l-20.042-23.65-20.042-23.649c-13.437 11.387-31.44 21.051-54.992 28.298zm65.918-34.278 20.273 23.453c21.562-18.639 37.826-42.722 49.332-71.148l-28.736-11.631-28.735-11.631c-8.416 20.793-19.399 36.261-32.406 47.505zm40.869-59.326 28.783 11.513c11.354-28.384 18.846-62.872 23.133-102.676l-30.822-3.319-30.822-3.319c-3.916 36.368-10.486 64.867-19.054 86.288zm21.094-94.482 30.79 3.599 27.686-236.865-30.79-3.599-30.791-3.599-27.685 236.865zm27.686-236.865v31h122.607v-62H716.725zm122.607 0-30.778-3.703-28.125 233.789 30.778 3.703 30.778 3.702 28.125-233.789zm-28.125 233.789-30.793-3.581c-5.724 49.227-13.618 88.856-23.354 119.415l29.538 9.41 29.537 9.41c11.358-35.652 19.87-79.519 25.865-131.074zm-24.609 125.244-29.612-9.172c-9.457 30.531-21.273 53.787-34.719 70.833l24.34 19.198 24.341 19.198c19.367-24.555 34.21-55.205 45.262-90.885zm-39.991 80.859-24.375-19.152c-13.503 17.185-30.462 31.761-51.245 43.673l15.415 26.895 15.416 26.896c27.264-15.627 50.441-35.329 69.165-59.159z" mask="url(#c)"/><defs><linearGradient id="a" x1="511.5" x2="512" y1="408" y2="778" gradientUnits="userSpaceOnUse"><stop stop-color="#1F1F1F"/><stop offset="1" stop-color="#545454"/></linearGradient><linearGradient id="b" x1="432.5" x2="549" y1="328" y2="628.5" gradientUnits="userSpaceOnUse"><stop stop-color="#FFE9A6"/><stop offset=".346" stop-color="#FFDC83"/><stop offset=".712" stop-color="#FFABAD"/><stop offset="1" stop-color="#FFC1F7"/></linearGradient></defs></svg>